<svg width="61" height="63" viewBox="0 0 61 63" fill="none" xmlns="http://www.w3.org/2000/svg">
<g id="solar:microphone-bold">
<g id="Group">
<path id="Vector" d="M30.5001 5.25C26.6241 5.25 22.9068 6.84023 20.166 9.67086C17.4252 12.5015 15.8855 16.3406 15.8855 20.3438V28.2188C15.8849 32.0515 17.2961 35.741 19.8328 38.5385C22.3696 41.3361 25.8418 43.0322 29.5449 43.2827C33.2481 43.5332 36.9048 42.3193 39.7732 39.8874C42.6415 37.4554 44.5067 33.9876 44.9901 30.1875H33.0417C32.5362 30.1875 32.0513 29.9801 31.6938 29.6109C31.3363 29.2417 31.1355 28.7409 31.1355 28.2188C31.1355 27.6966 31.3363 27.1958 31.6938 26.8266C32.0513 26.4574 32.5362 26.25 33.0417 26.25H45.1147V22.3125H33.0417C32.5362 22.3125 32.0513 22.1051 31.6938 21.7359C31.3363 21.3667 31.1355 20.8659 31.1355 20.3438C31.1355 19.8216 31.3363 19.3208 31.6938 18.9516C32.0513 18.5824 32.5362 18.375 33.0417 18.375H44.9901C44.5271 14.7444 42.8021 11.4113 40.1363 8.99667C37.4705 6.58205 34.0458 5.25048 30.5001 5.25Z" fill="#7171FF"/>
<path id="Vector_2" fill-rule="evenodd" clip-rule="evenodd" d="M10.1667 23.625C10.6723 23.625 11.1572 23.8324 11.5147 24.2016C11.8722 24.5708 12.073 25.0716 12.073 25.5938V28.2188C12.073 30.718 12.5496 33.1927 13.4757 35.5017C14.4017 37.8107 15.7591 39.9087 17.4702 41.6759C19.1813 43.4431 21.2127 44.8449 23.4483 45.8013C25.684 46.7577 28.0802 47.25 30.5001 47.25C32.92 47.25 35.3161 46.7577 37.5518 45.8013C39.7875 44.8449 41.8189 43.4431 43.53 41.6759C45.2411 39.9087 46.5984 37.8107 47.5245 35.5017C48.4505 33.1927 48.9272 30.718 48.9272 28.2188V25.5938C48.9272 25.0716 49.128 24.5708 49.4855 24.2016C49.843 23.8324 50.3278 23.625 50.8334 23.625C51.339 23.625 51.8238 23.8324 52.1813 24.2016C52.5388 24.5708 52.7397 25.0716 52.7397 25.5938V28.2188C52.7398 33.9697 50.651 39.5115 46.8861 43.7488C43.1212 47.9861 37.9542 50.6106 32.4063 51.1035V57.0938C32.4063 57.6159 32.2055 58.1167 31.848 58.4859C31.4905 58.8551 31.0056 59.0625 30.5001 59.0625C29.9945 59.0625 29.5096 58.8551 29.1522 58.4859C28.7947 58.1167 28.5938 57.6159 28.5938 57.0938V51.1035C23.0459 50.6106 17.8789 47.9861 14.114 43.7488C10.3492 39.5115 8.26037 33.9697 8.2605 28.2188V25.5938C8.2605 25.0716 8.46133 24.5708 8.81883 24.2016C9.17632 23.8324 9.66118 23.625 10.1667 23.625Z" fill="#7171FF"/>
</g>
</g>
</svg>
